<mxfile host="app.diagrams.net" modified="2024-05-29T15:25:06.353Z" agent="Mozilla/5.0 (Windows NT 10.0; Win64; x64; rv:126.0) Gecko/20100101 Firefox/126.0" version="24.4.0" etag="iAv-cWTPF0_29S3G0GiS" type="github">
  <diagram name="PÃ¡gina-1" id="UPb7-A2myzlJfk2rmj8a">
    <mxGraphModel>
      <root>
        <mxCell id="0" />
        <mxCell id="1" parent="0" />
      </root>
    </mxGraphModel>
  </diagram>
</mxfile>
